<?xml version="1.0" encoding="UTF-8"?>
<svg version="1.1" xmlns="http://www.w3.org/2000/svg" width="297" height="288">
<path d="M0 0 C98.01 0 196.02 0 297 0 C297 95.04 297 190.08 297 288 C198.99 288 100.98 288 0 288 C0 192.96 0 97.92 0 0 Z " fill="#FEFEFE" transform="translate(0,0)"/>
<path d="M0 0 C0.66 0 1.32 0 2 0 C3.62677091 2.13770618 5.13979644 4.2675534 6.625 6.5 C7.25535156 7.43005859 7.25535156 7.43005859 7.8984375 8.37890625 C8.93837167 9.91517264 9.96997056 11.45707524 11 13 C11.98742187 12.566875 12.97484375 12.13375 13.9921875 11.6875 C15.28637554 11.12480955 16.58065093 10.56231995 17.875 10 C18.52597656 9.71382812 19.17695313 9.42765625 19.84765625 9.1328125 C24.7734375 7 24.7734375 7 27 7 C28.53190797 10.06381594 28.10243613 13.26965866 28.0625 16.625 C28.041875 19.05875 28.02125 21.4925 28 24 C33.94 24.33 39.88 24.66 46 25 C44.4744159 29.5767523 42.82642433 33.70825728 40.8046875 38.046875 C39.8730214 39.9561344 39.8730214 39.9561344 40 42 C42.13770618 43.62677091 44.2675534 45.13979644 46.5 46.625 C47.43005859 47.25535156 47.43005859 47.25535156 48.37890625 47.8984375 C49.91517264 48.93837167 51.45707524 49.96997056 53 51 C50.28733409 53.86198697 47.55831983 56.10932246 44.25 58.25 C43.45078125 58.77078125 42.6515625 59.2915625 41.828125 59.828125 C41.22484375 60.21484375 40.6215625 60.6015625 40 61 C41.64472665 66.2491276 43.48594375 71.09160447 46 76 C46 76.66 46 77.32 46 78 C39.95170514 78.89604368 34.1105424 79.11269443 28 79 C28.01160156 79.79664063 28.02320313 80.59328125 28.03515625 81.4140625 C28.04417969 82.47367187 28.05320312 83.53328125 28.0625 84.625 C28.07410156 85.66914063 28.08570313 86.71328125 28.09765625 87.7890625 C28 91 28 91 27 97 C19.08 93.535 19.08 93.535 11 90 C8.03 94.29 5.06 98.58 2 103 C-2.08288689 101.6390377 -2.88685817 99.52046678 -5.1875 95.9375 C-5.90292969 94.83277344 -6.61835938 93.72804688 -7.35546875 92.58984375 C-8.16951172 91.30787109 -8.16951172 91.30787109 -9 90 C-9.90363281 90.433125 -10.80726563 90.86625 -11.73828125 91.3125 C-12.91777344 91.869375 -14.09726563 92.42625 -15.3125 93 C-16.48425781 93.556875 -17.65601563 94.11375 -18.86328125 94.6875 C-22 96 -22 96 -25 96 C-25.99640721 90.27065855 -26.07968356 84.81689987 -26 79 C-31.94 78.67 -37.88 78.34 -44 78 C-42.50003954 73.50011861 -41.01174888 69.9159003 -38.8046875 65.83203125 C-37.79892513 63.87570719 -37.79892513 63.87570719 -38 61 C-40.13824216 59.29939257 -42.22089861 57.79794342 -44.5 56.3125 C-45.12003906 55.89677734 -45.74007812 55.48105469 -46.37890625 55.05273438 C-47.91315943 54.02596494 -49.45581929 53.01177775 -51 52 C-48.28733409 49.13801303 -45.55831983 46.89067754 -42.25 44.75 C-41.05117187 43.96882813 -41.05117187 43.96882813 -39.828125 43.171875 C-39.22484375 42.78515625 -38.6215625 42.3984375 -38 42 C-39.64472665 36.7508724 -41.48594375 31.90839553 -44 27 C-44 26.34 -44 25.68 -44 25 C-38.06 24.67 -32.12 24.34 -26 24 C-26.03950724 19.15350804 -26.03950724 19.15350804 -26.09008789 14.30712891 C-26.11111111 9.22222222 -26.11111111 9.22222222 -25 7 C-19.55123997 8.72066106 -14.28830549 10.84705349 -9 13 C-8.37351563 12.0615625 -7.74703125 11.123125 -7.1015625 10.15625 C-6.2763988 8.93725817 -5.45085847 7.71852124 -4.625 6.5 C-4.00625 5.56994141 -4.00625 5.56994141 -3.375 4.62109375 C-2.30100332 3.04474379 -1.15511468 1.51791243 0 0 Z " fill="#555555" transform="translate(154,54)"/>
<path d="M0 0 C3.3 0 6.6 0 10 0 C13.25968109 19.96810934 13.25968109 19.96810934 14 29 C14.66 29 15.32 29 16 29 C16.0501123 28.44127197 16.10022461 27.88254395 16.15185547 27.30688477 C16.38690201 24.72483727 16.63090559 22.14370726 16.875 19.5625 C16.95363281 18.68400391 17.03226563 17.80550781 17.11328125 16.90039062 C17.66719901 11.12686317 18.6349137 5.63815054 20 0 C23.3 0 26.6 0 30 0 C30 15.18 30 30.36 30 46 C27.69 46 25.38 46 23 46 C22.505 33.625 22.505 33.625 22 21 C21.05452167 28.10467699 21.05452167 28.10467699 20.11547852 35.21020508 C19.99615967 36.09603271 19.87684082 36.98186035 19.75390625 37.89453125 C19.63345947 38.80050049 19.5130127 39.70646973 19.38891602 40.63989258 C19 43 19 43 18 46 C15.69 46 13.38 46 11 46 C9.02 34.615 9.02 34.615 7 23 C6.67 30.59 6.34 38.18 6 46 C4.02 46 2.04 46 0 46 C0 30.82 0 15.64 0 0 Z " fill="#202020" transform="translate(125,196)"/>
<path d="M0 0 C2.93423195 1.79646854 4.47205355 2.9441071 6 6 C6.13497396 8.4105418 6.21255704 10.79090585 6.23828125 13.203125 C6.25038887 14.27623932 6.25038887 14.27623932 6.26274109 15.37103271 C6.27657958 16.88746724 6.2873028 18.40393288 6.29516602 19.92041016 C6.31233257 22.22749894 6.35621124 24.53313682 6.40039062 26.83984375 C6.41052212 28.31509365 6.4190368 29.79035572 6.42578125 31.265625 C6.44328934 31.9502179 6.46079742 32.63481079 6.47883606 33.34014893 C6.4564765 38.33683778 5.12874566 41.15450039 2 45 C-1.71453232 46.85726616 -5.95579425 46.58501089 -10 46 C-12.82424288 43.80977082 -14.41508603 42.16982793 -16 39 C-16.1349498 36.57779073 -16.21254926 34.1855955 -16.23828125 31.76171875 C-16.246353 31.04393753 -16.25442474 30.32615631 -16.26274109 29.58662415 C-16.27657786 28.06599337 -16.28730185 26.54533159 -16.29516602 25.0246582 C-16.31235842 22.70658958 -16.35624181 20.38995531 -16.40039062 18.07226562 C-16.41051977 16.59376047 -16.41903519 15.11524321 -16.42578125 13.63671875 C-16.44328934 12.94696457 -16.46079742 12.25721039 -16.47883606 11.54655457 C-16.45739701 6.75501852 -15.38454362 4.36327947 -12 1 C-8.30274625 -0.84862688 -4.03538558 -0.47587094 0 0 Z " fill="#1C1C1C" transform="translate(184,196)"/>
<path d="M0 0 C3.63 0 7.26 0 11 0 C11.25394531 1.67964844 11.50789063 3.35929688 11.76953125 5.08984375 C14.27023411 21.57997288 14.27023411 21.57997288 17.13598633 38.00952148 C17.63692321 40.73114985 18 43.22343139 18 46 C15.36 46 12.72 46 10 46 C10 43.36 10 40.72 10 38 C6.7 38 3.4 38 0 38 C-0.33 40.64 -0.66 43.28 -1 46 C-2.98 46 -4.96 46 -7 46 C-6.38978148 37.48426394 -5.18210855 29.08802451 -3.84326172 20.66308594 C-3.49628989 18.47662051 -3.1559993 16.28918488 -2.81640625 14.1015625 C-1.1374499 3.41234971 -1.1374499 3.41234971 0 0 Z " fill="#1C1C1C" transform="translate(95,196)"/>
<path d="M0 0 C2.31 0 4.62 0 7 0 C7 12.87 7 25.74 7 39 C10.96 39 14.92 39 19 39 C19 41.31 19 43.62 19 46 C12.73 46 6.46 46 0 46 C0 30.82 0 15.64 0 0 Z " fill="#1B1B1B" transform="translate(203,196)"/>
<path d="M0 0 C3 0.125 3 0.125 4 1.125 C4.10012401 3.33150656 4.1308118 5.54122386 4.1328125 7.75 C4.13376923 8.41209473 4.13472595 9.07418945 4.13571167 9.75634766 C4.13639326 11.15852961 4.13454042 12.5607147 4.13037109 13.96289062 C4.12502246 16.11595713 4.1303167 18.26881502 4.13671875 20.421875 C4.13605796 21.78125046 4.13477679 23.1406258 4.1328125 24.5 C4.13168457 25.74523437 4.13055664 26.99046875 4.12939453 28.2734375 C4 31.125 4 31.125 3 32.125 C0 32.25 0 32.25 -3 32.125 C-4.88319268 30.24180732 -4.13054285 27.00569863 -4.1328125 24.5 C-4.13376923 23.83790527 -4.13472595 23.17581055 -4.13571167 22.49365234 C-4.13639326 21.09147039 -4.13454042 19.6892853 -4.13037109 18.28710938 C-4.12502246 16.13404287 -4.1303167 13.98118498 -4.13671875 11.828125 C-4.13605796 10.46874954 -4.13477679 9.1093742 -4.1328125 7.75 C-4.13168457 6.50476563 -4.13055664 5.25953125 -4.12939453 3.9765625 C-3.95167153 0.05995001 -3.93938636 0.1641411 0 0 Z " fill="#F2F2F2" transform="translate(179,202.875)"/>
<path d="M0 0 C0.66 0 1.32 0 2 0 C3.28297723 7.41148455 4.25515919 14.47280398 4 22 C2.02 22 0.04 22 -2 22 C-1.85856168 19.2705414 -1.71200471 16.54151877 -1.5625 13.8125 C-1.52318359 13.04357422 -1.48386719 12.27464844 -1.44335938 11.48242188 C-1.22492966 7.56748925 -0.91307892 3.82879312 0 0 Z " fill="#EFEFEF" transform="translate(99,205)"/>
<path d="M0 0 C0.33 0 0.66 0 1 0 C1 9.57 1 19.14 1 29 C0.67 29 0.34 29 0 29 C-0.33 25.7 -0.66 22.4 -1 19 C-1.33 19 -1.66 19 -2 19 C-1.85870713 16.58299013 -1.71213513 14.16649571 -1.5625 11.75 C-1.52318359 11.06808594 -1.48386719 10.38617188 -1.44335938 9.68359375 C-1.23333528 6.35551959 -0.98065998 3.19744598 0 0 Z " fill="#E3E3E3" transform="translate(147,213)"/>
<path d="M0 0 C0.66 0 1.32 0 2 0 C2 2.64 2 5.28 2 8 C1.67 8 1.34 8 1 8 C0.67 9.65 0.34 11.3 0 13 C-0.33 13 -0.66 13 -1 13 C-1.07654536 8.48382401 -1.10228696 4.40914783 0 0 Z " fill="#BABABA" transform="translate(99,205)"/>
</svg>
